<svg width="73" height="71" viewBox="0 0 73 71" fill="none" xmlns="http://www.w3.org/2000/svg">
<rect x="3.00024" width="67" height="71" fill="white"/>
<path d="M36.2429 38C46.3319 38 54.4855 29.7032 54.4855 19.5C54.4855 9.29675 46.3319 1 36.2429 1C26.1538 1 18.0002 9.29675 18.0002 19.5C18.0002 29.7032 26.1538 38 36.2429 38Z" fill="#E54744" stroke="#E54744" stroke-width="2"/>
<path d="M38.7125 17.036C38.7125 17.63 38.5145 18.062 38.1185 18.332C37.7225 18.602 37.1825 18.728 36.5345 18.728H35.8505V20.708H36.7505C37.0385 20.708 37.3085 20.744 37.5785 20.816C37.8485 20.888 38.1005 20.978 38.3165 21.122C38.5325 21.266 38.6945 21.428 38.8385 21.644C38.9645 21.86 39.0365 22.13 39.0365 22.436C39.0365 22.976 38.8385 23.408 38.4425 23.732C38.0465 24.056 37.5245 24.2 36.8765 24.2C36.4805 24.2 36.1205 24.146 35.8325 24.038C35.5445 23.93 35.2925 23.768 35.0765 23.588C34.8605 23.408 34.6805 23.192 34.5365 22.958C34.3925 22.742 34.2665 22.508 34.1945 22.274L32.4305 23.3C32.5565 23.66 32.7365 24.02 32.9885 24.38C33.2405 24.74 33.5465 25.046 33.9065 25.316C34.2665 25.586 34.6985 25.802 35.1845 25.964C35.6705 26.144 36.2285 26.216 36.8405 26.216C37.4525 26.216 38.0105 26.144 38.5505 25.964C39.0725 25.784 39.5405 25.532 39.9365 25.208C40.3325 24.884 40.6385 24.506 40.8545 24.038C41.0705 23.57 41.1965 23.048 41.1965 22.454C41.1965 22.058 41.1425 21.716 41.0345 21.392C40.9265 21.068 40.8005 20.798 40.6205 20.564C40.4405 20.33 40.2425 20.132 40.0265 19.97C39.8105 19.808 39.5765 19.682 39.3425 19.61C39.5045 19.502 39.6845 19.376 39.8645 19.214C40.0445 19.07 40.2245 18.872 40.3685 18.656C40.5125 18.44 40.6385 18.17 40.7465 17.882C40.8365 17.594 40.8905 17.27 40.8905 16.874C40.8905 16.334 40.7825 15.848 40.5665 15.38C40.3505 14.93 40.0805 14.534 39.7205 14.21C39.3605 13.886 38.9285 13.634 38.4425 13.454C37.9385 13.274 37.4165 13.184 36.8405 13.184C36.2645 13.184 35.7605 13.274 35.3285 13.436C34.8965 13.598 34.5005 13.796 34.1765 14.048C33.8525 14.3 33.5645 14.588 33.3485 14.912C33.1145 15.236 32.9345 15.542 32.8085 15.848L34.6805 16.73C34.7525 16.55 34.8425 16.352 34.9685 16.172C35.0945 15.992 35.2385 15.83 35.4185 15.686C35.5985 15.542 35.7965 15.434 36.0305 15.344C36.2645 15.254 36.5345 15.2 36.8225 15.2C37.3805 15.2 37.8305 15.38 38.1905 15.704C38.5325 16.028 38.7125 16.478 38.7125 17.036Z" fill="white"/>
<path d="M9.25427 64.614L8.28227 63.624C8.06627 63.912 7.74227 64.182 7.32827 64.434C6.91427 64.686 6.42827 64.812 5.85227 64.812C5.42027 64.812 5.04227 64.74 4.70027 64.578C4.35827 64.434 4.07027 64.218 3.83627 63.948C3.58427 63.678 3.40427 63.354 3.27827 62.994C3.13427 62.634 3.08027 62.256 3.08027 61.842C3.08027 61.446 3.13427 61.05 3.27827 60.69C3.40427 60.33 3.58427 60.024 3.83627 59.754C4.07027 59.484 4.35827 59.268 4.70027 59.106C5.04227 58.962 5.42027 58.872 5.85227 58.872C6.39227 58.872 6.86027 58.998 7.25627 59.214C7.63427 59.43 7.92227 59.664 8.13827 59.88L9.16427 58.962C9.02027 58.8 8.82227 58.62 8.60627 58.44C8.39027 58.26 8.13827 58.098 7.86827 57.954C7.58027 57.81 7.27427 57.702 6.95027 57.612C6.60827 57.522 6.24827 57.468 5.85227 57.468C5.24027 57.468 4.66427 57.594 4.14227 57.81C3.62027 58.044 3.17027 58.35 2.79227 58.746C2.39627 59.142 2.10827 59.61 1.89227 60.132C1.67627 60.672 1.56827 61.23 1.56827 61.842C1.56827 62.454 1.67627 63.03 1.89227 63.57C2.10827 64.11 2.39627 64.56 2.79227 64.956C3.17027 65.352 3.62027 65.658 4.14227 65.874C4.66427 66.108 5.24027 66.216 5.85227 66.216C6.24827 66.216 6.62627 66.18 6.98627 66.072C7.32827 65.982 7.63427 65.856 7.92227 65.694C8.21027 65.55 8.46227 65.37 8.67827 65.172C8.89427 64.992 9.09227 64.794 9.25427 64.614ZM15.0064 57.468C14.6464 57.468 14.3224 57.522 14.0524 57.612C13.7644 57.72 13.5304 57.828 13.3324 57.954C13.1344 58.08 12.9724 58.206 12.8464 58.35C12.7024 58.494 12.6124 58.62 12.5584 58.692V52.392H11.0464V66H12.5584V60.276C12.6484 60.132 12.7564 59.97 12.9004 59.79C13.0264 59.628 13.1704 59.484 13.3504 59.34C13.5304 59.196 13.7284 59.088 13.9444 58.998C14.1604 58.926 14.4124 58.872 14.7004 58.872C14.9524 58.872 15.1864 58.926 15.4204 58.998C15.6544 59.07 15.8524 59.196 16.0324 59.358C16.2124 59.538 16.3564 59.736 16.4644 59.988C16.5724 60.24 16.6264 60.546 16.6264 60.906V66H18.1384V60.654C18.1384 60.15 18.0484 59.682 17.8684 59.286C17.6884 58.89 17.4724 58.566 17.1844 58.296C16.8964 58.026 16.5544 57.828 16.1764 57.684C15.7984 57.54 15.4024 57.468 15.0064 57.468ZM26.5991 61.122H21.3791C21.3971 60.906 21.4691 60.672 21.5771 60.402C21.6851 60.15 21.8471 59.898 22.0631 59.682C22.2791 59.466 22.5311 59.268 22.8551 59.106C23.1791 58.962 23.5571 58.872 24.0071 58.872C24.4391 58.872 24.7991 58.944 25.1231 59.088C25.4471 59.232 25.6991 59.43 25.9151 59.646C26.1311 59.88 26.2931 60.132 26.4011 60.384C26.5091 60.654 26.5811 60.906 26.5991 61.122ZM24.0071 57.468C23.3771 57.468 22.8011 57.594 22.2971 57.81C21.7931 58.044 21.3611 58.35 21.0011 58.746C20.6411 59.142 20.3531 59.61 20.1551 60.132C19.9571 60.672 19.8671 61.23 19.8671 61.806C19.8671 62.436 19.9751 63.012 20.1911 63.552C20.4071 64.092 20.6951 64.56 21.0731 64.956C21.4511 65.352 21.9011 65.676 22.4411 65.892C22.9631 66.108 23.5391 66.216 24.1511 66.216C24.5471 66.216 24.9251 66.18 25.2851 66.09C25.6271 66 25.9511 65.874 26.2391 65.712C26.5271 65.568 26.7971 65.388 27.0311 65.19C27.2651 64.992 27.4811 64.794 27.6611 64.578L26.7071 63.588C26.4551 63.912 26.1311 64.182 25.6991 64.434C25.2671 64.686 24.7811 64.812 24.2051 64.812C23.8091 64.812 23.4311 64.758 23.1071 64.614C22.7651 64.488 22.4771 64.308 22.2251 64.074C21.9731 63.858 21.7571 63.588 21.6131 63.3C21.4511 63.012 21.3611 62.706 21.3431 62.382H28.0571C28.0571 62.292 28.0751 62.202 28.0751 62.13V61.896C28.0751 61.23 27.9671 60.618 27.7691 60.078C27.5531 59.538 27.2831 59.07 26.9231 58.674C26.5631 58.296 26.1311 58.008 25.6271 57.792C25.1231 57.576 24.5831 57.468 24.0071 57.468ZM36.9047 64.614L35.9327 63.624C35.7167 63.912 35.3927 64.182 34.9787 64.434C34.5647 64.686 34.0787 64.812 33.5027 64.812C33.0707 64.812 32.6927 64.74 32.3507 64.578C32.0087 64.434 31.7207 64.218 31.4867 63.948C31.2347 63.678 31.0547 63.354 30.9287 62.994C30.7847 62.634 30.7307 62.256 30.7307 61.842C30.7307 61.446 30.7847 61.05 30.9287 60.69C31.0547 60.33 31.2347 60.024 31.4867 59.754C31.7207 59.484 32.0087 59.268 32.3507 59.106C32.6927 58.962 33.0707 58.872 33.5027 58.872C34.0427 58.872 34.5107 58.998 34.9067 59.214C35.2847 59.43 35.5727 59.664 35.7887 59.88L36.8147 58.962C36.6707 58.8 36.4727 58.62 36.2567 58.44C36.0407 58.26 35.7887 58.098 35.5187 57.954C35.2307 57.81 34.9247 57.702 34.6007 57.612C34.2587 57.522 33.8987 57.468 33.5027 57.468C32.8907 57.468 32.3147 57.594 31.7927 57.81C31.2707 58.044 30.8207 58.35 30.4427 58.746C30.0467 59.142 29.7587 59.61 29.5427 60.132C29.3267 60.672 29.2187 61.23 29.2187 61.842C29.2187 62.454 29.3267 63.03 29.5427 63.57C29.7587 64.11 30.0467 64.56 30.4427 64.956C30.8207 65.352 31.2707 65.658 31.7927 65.874C32.3147 66.108 32.8907 66.216 33.5027 66.216C33.8987 66.216 34.2767 66.18 34.6367 66.072C34.9787 65.982 35.2847 65.856 35.5727 65.694C35.8607 65.55 36.1127 65.37 36.3287 65.172C36.5447 64.992 36.7427 64.794 36.9047 64.614ZM40.2088 61.968L43.9708 66H46.0768L41.8648 61.608L45.7528 57.684H43.7728L40.2088 61.374V52.392H38.6968V66H40.2088V61.968ZM50.9753 64.812C50.5433 64.812 50.1653 64.74 49.8233 64.578C49.4813 64.434 49.1933 64.218 48.9593 63.948C48.7073 63.678 48.5273 63.354 48.4013 62.994C48.2573 62.634 48.2033 62.256 48.2033 61.842C48.2033 61.446 48.2573 61.05 48.4013 60.69C48.5273 60.33 48.7073 60.024 48.9593 59.754C49.1933 59.484 49.4813 59.268 49.8233 59.106C50.1653 58.962 50.5433 58.872 50.9753 58.872C51.3893 58.872 51.7673 58.962 52.1093 59.106C52.4513 59.268 52.7393 59.484 52.9913 59.754C53.2253 60.024 53.4053 60.33 53.5493 60.69C53.6753 61.05 53.7473 61.446 53.7473 61.842C53.7473 62.256 53.6753 62.634 53.5493 62.994C53.4053 63.354 53.2253 63.678 52.9913 63.948C52.7393 64.218 52.4513 64.434 52.1093 64.578C51.7673 64.74 51.3893 64.812 50.9753 64.812ZM50.9753 57.468C50.3633 57.468 49.7873 57.594 49.2653 57.81C48.7433 58.044 48.2933 58.35 47.9153 58.746C47.5193 59.142 47.2313 59.592 47.0153 60.132C46.7993 60.672 46.6913 61.23 46.6913 61.842C46.6913 62.454 46.7993 63.03 47.0153 63.57C47.2313 64.11 47.5193 64.56 47.9153 64.956C48.2933 65.352 48.7433 65.658 49.2653 65.874C49.7873 66.108 50.3633 66.216 50.9753 66.216C51.5873 66.216 52.1453 66.108 52.6673 65.874C53.1893 65.658 53.6393 65.352 54.0353 64.956C54.4133 64.56 54.7193 64.11 54.9353 63.57C55.1513 63.03 55.2593 62.454 55.2593 61.842C55.2593 61.23 55.1513 60.672 54.9353 60.132C54.7193 59.592 54.4133 59.142 54.0353 58.746C53.6393 58.35 53.1893 58.044 52.6673 57.81C52.1453 57.594 51.5873 57.468 50.9753 57.468ZM60.102 66.216C60.426 66.216 60.732 66.18 61.02 66.072C61.29 65.982 61.542 65.856 61.758 65.712C61.974 65.568 62.154 65.424 62.298 65.244C62.442 65.064 62.568 64.902 62.676 64.722V66H64.08V57.684H62.568V63.444C62.37 63.804 62.1 64.11 61.758 64.398C61.416 64.686 60.984 64.812 60.444 64.812C60.192 64.812 59.94 64.776 59.706 64.704C59.472 64.632 59.274 64.506 59.094 64.326C58.914 64.164 58.77 63.948 58.662 63.696C58.554 63.444 58.5 63.138 58.5 62.778V57.684H56.988V63.03C56.988 63.552 57.06 64.002 57.24 64.398C57.42 64.794 57.654 65.136 57.942 65.406C58.23 65.676 58.554 65.874 58.932 66.018C59.292 66.162 59.688 66.216 60.102 66.216ZM65.6723 57.684V59.052H67.2923V63.606C67.2923 64.074 67.3643 64.47 67.5083 64.794C67.6523 65.118 67.8503 65.388 68.1023 65.604C68.3363 65.82 68.6063 65.964 68.9123 66.072C69.2003 66.18 69.5063 66.216 69.8303 66.216C70.0463 66.216 70.2983 66.198 70.5683 66.126C70.8383 66.054 71.1623 65.928 71.5223 65.712L70.9643 64.47C70.8023 64.578 70.6403 64.65 70.4963 64.722C70.3343 64.794 70.1543 64.812 69.9563 64.812C69.5963 64.812 69.3083 64.704 69.1103 64.488C68.8943 64.272 68.8043 63.948 68.8043 63.534V59.052H71.3963V57.684H68.8043V55.146H67.2923V57.684H65.6723Z" fill="black"/>
</svg>
