<svg width="73" height="71" viewBox="0 0 73 71" fill="none" xmlns="http://www.w3.org/2000/svg">
<rect x="4" width="67" height="71" fill="white"/>
<path d="M9.73149 64.614L8.75949 63.624C8.54349 63.912 8.21949 64.182 7.80549 64.434C7.39149 64.686 6.90549 64.812 6.32949 64.812C5.89749 64.812 5.51949 64.74 5.17749 64.578C4.83549 64.434 4.54749 64.218 4.31349 63.948C4.06149 63.678 3.88149 63.354 3.75549 62.994C3.61149 62.634 3.55749 62.256 3.55749 61.842C3.55749 61.446 3.61149 61.05 3.75549 60.69C3.88149 60.33 4.06149 60.024 4.31349 59.754C4.54749 59.484 4.83549 59.268 5.17749 59.106C5.51949 58.962 5.89749 58.872 6.32949 58.872C6.86949 58.872 7.33749 58.998 7.73349 59.214C8.11149 59.43 8.39949 59.664 8.61549 59.88L9.64149 58.962C9.49749 58.8 9.29949 58.62 9.08349 58.44C8.86749 58.26 8.61549 58.098 8.34549 57.954C8.05749 57.81 7.75149 57.702 7.42749 57.612C7.08549 57.522 6.72549 57.468 6.32949 57.468C5.71749 57.468 5.14149 57.594 4.61949 57.81C4.09749 58.044 3.64749 58.35 3.26949 58.746C2.87349 59.142 2.58549 59.61 2.36949 60.132C2.15349 60.672 2.04549 61.23 2.04549 61.842C2.04549 62.454 2.15349 63.03 2.36949 63.57C2.58549 64.11 2.87349 64.56 3.26949 64.956C3.64749 65.352 4.09749 65.658 4.61949 65.874C5.14149 66.108 5.71749 66.216 6.32949 66.216C6.72549 66.216 7.10349 66.18 7.46349 66.072C7.80549 65.982 8.11149 65.856 8.39949 65.694C8.68749 65.55 8.93949 65.37 9.15549 65.172C9.37149 64.992 9.56949 64.794 9.73149 64.614ZM15.4836 57.468C15.1236 57.468 14.7996 57.522 14.5296 57.612C14.2416 57.72 14.0076 57.828 13.8096 57.954C13.6116 58.08 13.4496 58.206 13.3236 58.35C13.1796 58.494 13.0896 58.62 13.0356 58.692V52.392H11.5236V66H13.0356V60.276C13.1256 60.132 13.2336 59.97 13.3776 59.79C13.5036 59.628 13.6476 59.484 13.8276 59.34C14.0076 59.196 14.2056 59.088 14.4216 58.998C14.6376 58.926 14.8896 58.872 15.1776 58.872C15.4296 58.872 15.6636 58.926 15.8976 58.998C16.1316 59.07 16.3296 59.196 16.5096 59.358C16.6896 59.538 16.8336 59.736 16.9416 59.988C17.0496 60.24 17.1036 60.546 17.1036 60.906V66H18.6156V60.654C18.6156 60.15 18.5256 59.682 18.3456 59.286C18.1656 58.89 17.9496 58.566 17.6616 58.296C17.3736 58.026 17.0316 57.828 16.6536 57.684C16.2756 57.54 15.8796 57.468 15.4836 57.468ZM27.0763 61.122H21.8563C21.8743 60.906 21.9463 60.672 22.0543 60.402C22.1623 60.15 22.3243 59.898 22.5403 59.682C22.7563 59.466 23.0083 59.268 23.3323 59.106C23.6563 58.962 24.0343 58.872 24.4843 58.872C24.9163 58.872 25.2763 58.944 25.6003 59.088C25.9243 59.232 26.1763 59.43 26.3923 59.646C26.6083 59.88 26.7703 60.132 26.8783 60.384C26.9863 60.654 27.0583 60.906 27.0763 61.122ZM24.4843 57.468C23.8543 57.468 23.2783 57.594 22.7743 57.81C22.2703 58.044 21.8383 58.35 21.4783 58.746C21.1183 59.142 20.8303 59.61 20.6323 60.132C20.4343 60.672 20.3443 61.23 20.3443 61.806C20.3443 62.436 20.4523 63.012 20.6683 63.552C20.8843 64.092 21.1723 64.56 21.5503 64.956C21.9283 65.352 22.3783 65.676 22.9183 65.892C23.4403 66.108 24.0163 66.216 24.6283 66.216C25.0243 66.216 25.4023 66.18 25.7623 66.09C26.1043 66 26.4283 65.874 26.7163 65.712C27.0043 65.568 27.2743 65.388 27.5083 65.19C27.7423 64.992 27.9583 64.794 28.1383 64.578L27.1843 63.588C26.9323 63.912 26.6083 64.182 26.1763 64.434C25.7443 64.686 25.2583 64.812 24.6823 64.812C24.2863 64.812 23.9083 64.758 23.5843 64.614C23.2423 64.488 22.9543 64.308 22.7023 64.074C22.4503 63.858 22.2343 63.588 22.0903 63.3C21.9283 63.012 21.8383 62.706 21.8203 62.382H28.5343C28.5343 62.292 28.5523 62.202 28.5523 62.13V61.896C28.5523 61.23 28.4443 60.618 28.2463 60.078C28.0303 59.538 27.7603 59.07 27.4003 58.674C27.0403 58.296 26.6083 58.008 26.1043 57.792C25.6003 57.576 25.0603 57.468 24.4843 57.468ZM37.3819 64.614L36.4099 63.624C36.1939 63.912 35.8699 64.182 35.4559 64.434C35.0419 64.686 34.5559 64.812 33.9799 64.812C33.5479 64.812 33.1699 64.74 32.8279 64.578C32.4859 64.434 32.1979 64.218 31.9639 63.948C31.7119 63.678 31.5319 63.354 31.4059 62.994C31.2619 62.634 31.2079 62.256 31.2079 61.842C31.2079 61.446 31.2619 61.05 31.4059 60.69C31.5319 60.33 31.7119 60.024 31.9639 59.754C32.1979 59.484 32.4859 59.268 32.8279 59.106C33.1699 58.962 33.5479 58.872 33.9799 58.872C34.5199 58.872 34.9879 58.998 35.3839 59.214C35.7619 59.43 36.0499 59.664 36.2659 59.88L37.2919 58.962C37.1479 58.8 36.9499 58.62 36.7339 58.44C36.5179 58.26 36.2659 58.098 35.9959 57.954C35.7079 57.81 35.4019 57.702 35.0779 57.612C34.7359 57.522 34.3759 57.468 33.9799 57.468C33.3679 57.468 32.7919 57.594 32.2699 57.81C31.7479 58.044 31.2979 58.35 30.9199 58.746C30.5239 59.142 30.2359 59.61 30.0199 60.132C29.8039 60.672 29.6959 61.23 29.6959 61.842C29.6959 62.454 29.8039 63.03 30.0199 63.57C30.2359 64.11 30.5239 64.56 30.9199 64.956C31.2979 65.352 31.7479 65.658 32.2699 65.874C32.7919 66.108 33.3679 66.216 33.9799 66.216C34.3759 66.216 34.7539 66.18 35.1139 66.072C35.4559 65.982 35.7619 65.856 36.0499 65.694C36.3379 65.55 36.5899 65.37 36.8059 65.172C37.0219 64.992 37.2199 64.794 37.3819 64.614ZM40.686 61.968L44.448 66H46.554L42.342 61.608L46.23 57.684H44.25L40.686 61.374V52.392H39.174V66H40.686V61.968ZM51.4525 64.812C51.0205 64.812 50.6425 64.74 50.3005 64.578C49.9585 64.434 49.6705 64.218 49.4365 63.948C49.1845 63.678 49.0045 63.354 48.8785 62.994C48.7345 62.634 48.6805 62.256 48.6805 61.842C48.6805 61.446 48.7345 61.05 48.8785 60.69C49.0045 60.33 49.1845 60.024 49.4365 59.754C49.6705 59.484 49.9585 59.268 50.3005 59.106C50.6425 58.962 51.0205 58.872 51.4525 58.872C51.8665 58.872 52.2445 58.962 52.5865 59.106C52.9285 59.268 53.2165 59.484 53.4685 59.754C53.7025 60.024 53.8825 60.33 54.0265 60.69C54.1525 61.05 54.2245 61.446 54.2245 61.842C54.2245 62.256 54.1525 62.634 54.0265 62.994C53.8825 63.354 53.7025 63.678 53.4685 63.948C53.2165 64.218 52.9285 64.434 52.5865 64.578C52.2445 64.74 51.8665 64.812 51.4525 64.812ZM51.4525 57.468C50.8405 57.468 50.2645 57.594 49.7425 57.81C49.2205 58.044 48.7705 58.35 48.3925 58.746C47.9965 59.142 47.7085 59.592 47.4925 60.132C47.2765 60.672 47.1685 61.23 47.1685 61.842C47.1685 62.454 47.2765 63.03 47.4925 63.57C47.7085 64.11 47.9965 64.56 48.3925 64.956C48.7705 65.352 49.2205 65.658 49.7425 65.874C50.2645 66.108 50.8405 66.216 51.4525 66.216C52.0645 66.216 52.6225 66.108 53.1445 65.874C53.6665 65.658 54.1165 65.352 54.5125 64.956C54.8905 64.56 55.1965 64.11 55.4125 63.57C55.6285 63.03 55.7365 62.454 55.7365 61.842C55.7365 61.23 55.6285 60.672 55.4125 60.132C55.1965 59.592 54.8905 59.142 54.5125 58.746C54.1165 58.35 53.6665 58.044 53.1445 57.81C52.6225 57.594 52.0645 57.468 51.4525 57.468ZM60.5792 66.216C60.9032 66.216 61.2092 66.18 61.4972 66.072C61.7672 65.982 62.0192 65.856 62.2352 65.712C62.4512 65.568 62.6312 65.424 62.7752 65.244C62.9192 65.064 63.0452 64.902 63.1532 64.722V66H64.5572V57.684H63.0452V63.444C62.8472 63.804 62.5772 64.11 62.2352 64.398C61.8932 64.686 61.4612 64.812 60.9212 64.812C60.6692 64.812 60.4172 64.776 60.1832 64.704C59.9492 64.632 59.7512 64.506 59.5712 64.326C59.3912 64.164 59.2472 63.948 59.1392 63.696C59.0312 63.444 58.9772 63.138 58.9772 62.778V57.684H57.4652V63.03C57.4652 63.552 57.5372 64.002 57.7172 64.398C57.8972 64.794 58.1312 65.136 58.4192 65.406C58.7072 65.676 59.0312 65.874 59.4092 66.018C59.7692 66.162 60.1652 66.216 60.5792 66.216ZM66.1495 57.684V59.052H67.7695V63.606C67.7695 64.074 67.8415 64.47 67.9855 64.794C68.1295 65.118 68.3275 65.388 68.5795 65.604C68.8135 65.82 69.0835 65.964 69.3895 66.072C69.6775 66.18 69.9835 66.216 70.3075 66.216C70.5235 66.216 70.7755 66.198 71.0455 66.126C71.3155 66.054 71.6395 65.928 71.9995 65.712L71.4415 64.47C71.2795 64.578 71.1175 64.65 70.9735 64.722C70.8115 64.794 70.6315 64.812 70.4335 64.812C70.0735 64.812 69.7855 64.704 69.5875 64.488C69.3715 64.272 69.2815 63.948 69.2815 63.534V59.052H71.8735V57.684H69.2815V55.146H67.7695V57.684H66.1495Z" fill="black"/>
<circle cx="37.5" cy="19.5" r="18.5" stroke="#E54744" stroke-width="2"/>
<path d="M38.8152 17.036C38.8152 17.63 38.6172 18.062 38.2212 18.332C37.8252 18.602 37.2852 18.728 36.6372 18.728H35.9532V20.708H36.8532C37.1412 20.708 37.4112 20.744 37.6812 20.816C37.9512 20.888 38.2032 20.978 38.4192 21.122C38.6352 21.266 38.7972 21.428 38.9412 21.644C39.0672 21.86 39.1392 22.13 39.1392 22.436C39.1392 22.976 38.9412 23.408 38.5452 23.732C38.1492 24.056 37.6272 24.2 36.9792 24.2C36.5832 24.2 36.2232 24.146 35.9352 24.038C35.6472 23.93 35.3952 23.768 35.1792 23.588C34.9632 23.408 34.7832 23.192 34.6392 22.958C34.4952 22.742 34.3692 22.508 34.2972 22.274L32.5332 23.3C32.6592 23.66 32.8392 24.02 33.0912 24.38C33.3432 24.74 33.6492 25.046 34.0092 25.316C34.3692 25.586 34.8012 25.802 35.2872 25.964C35.7732 26.144 36.3312 26.216 36.9432 26.216C37.5552 26.216 38.1132 26.144 38.6532 25.964C39.1752 25.784 39.6432 25.532 40.0392 25.208C40.4352 24.884 40.7412 24.506 40.9572 24.038C41.1732 23.57 41.2992 23.048 41.2992 22.454C41.2992 22.058 41.2452 21.716 41.1372 21.392C41.0292 21.068 40.9032 20.798 40.7232 20.564C40.5432 20.33 40.3452 20.132 40.1292 19.97C39.9132 19.808 39.6792 19.682 39.4452 19.61C39.6072 19.502 39.7872 19.376 39.9672 19.214C40.1472 19.07 40.3272 18.872 40.4712 18.656C40.6152 18.44 40.7412 18.17 40.8492 17.882C40.9392 17.594 40.9932 17.27 40.9932 16.874C40.9932 16.334 40.8852 15.848 40.6692 15.38C40.4532 14.93 40.1832 14.534 39.8232 14.21C39.4632 13.886 39.0312 13.634 38.5452 13.454C38.0412 13.274 37.5192 13.184 36.9432 13.184C36.3672 13.184 35.8632 13.274 35.4312 13.436C34.9992 13.598 34.6032 13.796 34.2792 14.048C33.9552 14.3 33.6672 14.588 33.4512 14.912C33.2172 15.236 33.0372 15.542 32.9112 15.848L34.7832 16.73C34.8552 16.55 34.9452 16.352 35.0712 16.172C35.1972 15.992 35.3412 15.83 35.5212 15.686C35.7012 15.542 35.8992 15.434 36.1332 15.344C36.3672 15.254 36.6372 15.2 36.9252 15.2C37.4832 15.2 37.9332 15.38 38.2932 15.704C38.6352 16.028 38.8152 16.478 38.8152 17.036Z" fill="#4D4D4D"/>
</svg>
