<svg width="67" height="71" viewBox="0 0 67 71" fill="none" xmlns="http://www.w3.org/2000/svg">
    <rect width="67" height="71" fill="white"/>
    <path d="M11.656 63.498L10.612 64.47C10.756 64.686 10.954 64.902 11.206 65.1C11.44 65.316 11.71 65.496 12.016 65.658C12.304 65.838 12.646 65.964 13.006 66.072C13.366 66.18 13.762 66.216 14.194 66.216C14.59 66.216 14.986 66.18 15.382 66.072C15.778 65.964 16.12 65.82 16.426 65.604C16.732 65.406 16.984 65.154 17.182 64.83C17.362 64.506 17.47 64.128 17.47 63.696C17.47 63.264 17.362 62.904 17.182 62.616C16.984 62.328 16.75 62.076 16.462 61.878C16.174 61.698 15.85 61.536 15.508 61.428C15.166 61.32 14.842 61.23 14.536 61.158C14.284 61.104 14.032 61.05 13.798 60.978C13.546 60.906 13.33 60.834 13.15 60.744C12.952 60.654 12.79 60.546 12.682 60.402C12.574 60.276 12.52 60.114 12.52 59.916C12.52 59.646 12.646 59.394 12.916 59.178C13.168 58.962 13.564 58.836 14.068 58.836C14.572 58.836 14.986 58.944 15.346 59.142C15.688 59.34 15.976 59.538 16.192 59.754L17.182 58.728C16.876 58.422 16.462 58.134 15.94 57.864C15.418 57.612 14.806 57.468 14.104 57.468C13.636 57.468 13.204 57.54 12.844 57.666C12.466 57.81 12.142 57.99 11.872 58.206C11.602 58.44 11.404 58.71 11.26 59.016C11.116 59.322 11.044 59.646 11.044 59.97C11.044 60.402 11.152 60.78 11.368 61.068C11.584 61.374 11.836 61.626 12.16 61.806C12.466 61.986 12.79 62.13 13.15 62.238C13.492 62.346 13.798 62.436 14.086 62.49C14.302 62.544 14.518 62.598 14.734 62.652C14.95 62.724 15.166 62.796 15.346 62.886C15.526 62.994 15.688 63.102 15.796 63.246C15.904 63.39 15.976 63.57 15.976 63.75C15.976 63.966 15.904 64.128 15.796 64.272C15.688 64.416 15.544 64.524 15.364 64.614C15.184 64.704 15.004 64.758 14.788 64.794C14.572 64.83 14.374 64.848 14.194 64.848C13.87 64.848 13.582 64.812 13.33 64.722C13.078 64.65 12.844 64.542 12.628 64.398C12.412 64.272 12.214 64.128 12.052 63.966C11.89 63.822 11.764 63.66 11.656 63.498ZM25.4994 61.122H20.2794C20.2974 60.906 20.3694 60.672 20.4774 60.402C20.5854 60.15 20.7474 59.898 20.9634 59.682C21.1794 59.466 21.4314 59.268 21.7554 59.106C22.0794 58.962 22.4574 58.872 22.9074 58.872C23.3394 58.872 23.6994 58.944 24.0234 59.088C24.3474 59.232 24.5994 59.43 24.8154 59.646C25.0314 59.88 25.1934 60.132 25.3014 60.384C25.4094 60.654 25.4814 60.906 25.4994 61.122ZM22.9074 57.468C22.2774 57.468 21.7014 57.594 21.1974 57.81C20.6934 58.044 20.2614 58.35 19.9014 58.746C19.5414 59.142 19.2534 59.61 19.0554 60.132C18.8574 60.672 18.7674 61.23 18.7674 61.806C18.7674 62.436 18.8754 63.012 19.0914 63.552C19.3074 64.092 19.5954 64.56 19.9734 64.956C20.3514 65.352 20.8014 65.676 21.3414 65.892C21.8634 66.108 22.4394 66.216 23.0514 66.216C23.4474 66.216 23.8254 66.18 24.1854 66.09C24.5274 66 24.8514 65.874 25.1394 65.712C25.4274 65.568 25.6974 65.388 25.9314 65.19C26.1654 64.992 26.3814 64.794 26.5614 64.578L25.6074 63.588C25.3554 63.912 25.0314 64.182 24.5994 64.434C24.1674 64.686 23.6814 64.812 23.1054 64.812C22.7094 64.812 22.3314 64.758 22.0074 64.614C21.6654 64.488 21.3774 64.308 21.1254 64.074C20.8734 63.858 20.6574 63.588 20.5134 63.3C20.3514 63.012 20.2614 62.706 20.2434 62.382H26.9574C26.9574 62.292 26.9754 62.202 26.9754 62.13V61.896C26.9754 61.23 26.8674 60.618 26.6694 60.078C26.4534 59.538 26.1834 59.07 25.8234 58.674C25.4634 58.296 25.0314 58.008 24.5274 57.792C24.0234 57.576 23.4834 57.468 22.9074 57.468ZM29.019 52.392V66H30.531V52.392H29.019ZM39.3158 61.122H34.0958C34.1138 60.906 34.1858 60.672 34.2938 60.402C34.4018 60.15 34.5638 59.898 34.7798 59.682C34.9958 59.466 35.2478 59.268 35.5718 59.106C35.8958 58.962 36.2738 58.872 36.7238 58.872C37.1558 58.872 37.5158 58.944 37.8398 59.088C38.1638 59.232 38.4158 59.43 38.6318 59.646C38.8478 59.88 39.0098 60.132 39.1178 60.384C39.2258 60.654 39.2978 60.906 39.3158 61.122ZM36.7238 57.468C36.0938 57.468 35.5178 57.594 35.0138 57.81C34.5098 58.044 34.0778 58.35 33.7178 58.746C33.3578 59.142 33.0698 59.61 32.8718 60.132C32.6738 60.672 32.5838 61.23 32.5838 61.806C32.5838 62.436 32.6918 63.012 32.9078 63.552C33.1238 64.092 33.4118 64.56 33.7898 64.956C34.1678 65.352 34.6178 65.676 35.1578 65.892C35.6798 66.108 36.2558 66.216 36.8678 66.216C37.2638 66.216 37.6418 66.18 38.0018 66.09C38.3438 66 38.6678 65.874 38.9558 65.712C39.2438 65.568 39.5138 65.388 39.7478 65.19C39.9818 64.992 40.1978 64.794 40.3778 64.578L39.4238 63.588C39.1718 63.912 38.8478 64.182 38.4158 64.434C37.9838 64.686 37.4978 64.812 36.9218 64.812C36.5258 64.812 36.1478 64.758 35.8238 64.614C35.4818 64.488 35.1938 64.308 34.9418 64.074C34.6898 63.858 34.4738 63.588 34.3298 63.3C34.1678 63.012 34.0778 62.706 34.0598 62.382H40.7738C40.7738 62.292 40.7918 62.202 40.7918 62.13V61.896C40.7918 61.23 40.6838 60.618 40.4858 60.078C40.2698 59.538 39.9998 59.07 39.6398 58.674C39.2798 58.296 38.8478 58.008 38.3438 57.792C37.8398 57.576 37.2998 57.468 36.7238 57.468ZM49.6214 64.614L48.6494 63.624C48.4334 63.912 48.1094 64.182 47.6954 64.434C47.2814 64.686 46.7954 64.812 46.2194 64.812C45.7874 64.812 45.4094 64.74 45.0674 64.578C44.7254 64.434 44.4374 64.218 44.2034 63.948C43.9514 63.678 43.7714 63.354 43.6454 62.994C43.5014 62.634 43.4474 62.256 43.4474 61.842C43.4474 61.446 43.5014 61.05 43.6454 60.69C43.7714 60.33 43.9514 60.024 44.2034 59.754C44.4374 59.484 44.7254 59.268 45.0674 59.106C45.4094 58.962 45.7874 58.872 46.2194 58.872C46.7594 58.872 47.2274 58.998 47.6234 59.214C48.0014 59.43 48.2894 59.664 48.5054 59.88L49.5314 58.962C49.3874 58.8 49.1894 58.62 48.9734 58.44C48.7574 58.26 48.5054 58.098 48.2354 57.954C47.9474 57.81 47.6414 57.702 47.3174 57.612C46.9754 57.522 46.6154 57.468 46.2194 57.468C45.6074 57.468 45.0314 57.594 44.5094 57.81C43.9874 58.044 43.5374 58.35 43.1594 58.746C42.7634 59.142 42.4754 59.61 42.2594 60.132C42.0434 60.672 41.9354 61.23 41.9354 61.842C41.9354 62.454 42.0434 63.03 42.2594 63.57C42.4754 64.11 42.7634 64.56 43.1594 64.956C43.5374 65.352 43.9874 65.658 44.5094 65.874C45.0314 66.108 45.6074 66.216 46.2194 66.216C46.6154 66.216 46.9934 66.18 47.3534 66.072C47.6954 65.982 48.0014 65.856 48.2894 65.694C48.5774 65.55 48.8294 65.37 49.0454 65.172C49.2614 64.992 49.4594 64.794 49.6214 64.614ZM50.3695 57.684V59.052H51.9895V63.606C51.9895 64.074 52.0615 64.47 52.2055 64.794C52.3495 65.118 52.5475 65.388 52.7995 65.604C53.0335 65.82 53.3035 65.964 53.6095 66.072C53.8975 66.18 54.2035 66.216 54.5275 66.216C54.7435 66.216 54.9955 66.198 55.2655 66.126C55.5355 66.054 55.8595 65.928 56.2195 65.712L55.6615 64.47C55.4995 64.578 55.3375 64.65 55.1935 64.722C55.0315 64.794 54.8515 64.812 54.6535 64.812C54.2935 64.812 54.0055 64.704 53.8075 64.488C53.5915 64.272 53.5015 63.948 53.5015 63.534V59.052H56.0935V57.684H53.5015V55.146H51.9895V57.684H50.3695Z" fill="black"/>
    <circle cx="33.5" cy="19.5" r="18.5" stroke="#E54744" stroke-width="2"/>
    <path d="M33.623 13.4L29.789 16.46L31.031 18.044L33.245 16.28V26H35.405V13.4H33.623Z" fill="black" fill-opacity="0.7"/>
</svg>
