<svg width="67" height="71" viewBox="0 0 67 71" fill="none" xmlns="http://www.w3.org/2000/svg">
                    <rect width="67" height="71" fill="white"/>
                    <circle cx="33.5" cy="19.5" r="18.5" stroke="#E54744" stroke-width="2"/>
                    <path d="M34.3538 20.132L29.7278 26H38.0258V23.948H33.9758L36.8738 20.204C36.9458 20.096 37.0538 19.952 37.1798 19.754C37.3058 19.556 37.4318 19.322 37.5398 19.052C37.6478 18.8 37.7558 18.494 37.8458 18.17C37.9178 17.846 37.9718 17.486 37.9718 17.09C37.9718 16.586 37.8818 16.082 37.7198 15.614C37.5398 15.146 37.2878 14.714 36.9638 14.354C36.6218 13.994 36.2078 13.724 35.7218 13.508C35.2178 13.292 34.6418 13.184 33.9938 13.184C33.3818 13.184 32.8238 13.292 32.3558 13.472C31.8878 13.652 31.4738 13.904 31.1318 14.192C30.7898 14.48 30.5018 14.822 30.2858 15.2C30.0518 15.578 29.8718 15.956 29.7638 16.334L31.6898 17.036C31.8158 16.532 32.0678 16.1 32.4638 15.74C32.8418 15.38 33.3278 15.2 33.9038 15.2C34.5158 15.2 34.9838 15.398 35.3078 15.794C35.6318 16.19 35.8118 16.658 35.8118 17.198C35.8118 17.54 35.7578 17.864 35.6498 18.152C35.5418 18.44 35.3978 18.71 35.2538 18.962C35.0918 19.214 34.9298 19.43 34.7678 19.628C34.5878 19.826 34.4618 19.988 34.3538 20.132Z" fill="#4D4D4D"/>
                    <path d="M17.1784 63.372V60.312C17.4124 59.934 17.7364 59.592 18.1504 59.304C18.5464 59.016 19.0504 58.872 19.6444 58.872C20.0404 58.872 20.4184 58.962 20.7604 59.106C21.0844 59.268 21.3724 59.484 21.6244 59.754C21.8584 60.024 22.0384 60.33 22.1824 60.69C22.3084 61.05 22.3804 61.446 22.3804 61.842C22.3804 62.256 22.3084 62.634 22.1824 62.994C22.0384 63.354 21.8584 63.678 21.6244 63.948C21.3904 64.218 21.1024 64.434 20.7784 64.578C20.4364 64.74 20.0584 64.812 19.6624 64.812C19.3384 64.812 19.0324 64.776 18.7804 64.686C18.5284 64.596 18.2944 64.488 18.0784 64.344C17.8624 64.2 17.6824 64.056 17.5384 63.876C17.3944 63.714 17.2684 63.552 17.1784 63.372ZM19.8604 57.468C19.1764 57.468 18.6184 57.612 18.1684 57.882C17.7184 58.152 17.3944 58.422 17.1784 58.71V52.392H15.6664V66H17.0524V64.794C17.1604 64.974 17.2864 65.154 17.4664 65.316C17.6464 65.496 17.8444 65.64 18.0784 65.766C18.3124 65.91 18.5824 66.018 18.8704 66.09C19.1584 66.18 19.4824 66.216 19.8424 66.216C20.4004 66.216 20.9224 66.108 21.4264 65.874C21.9124 65.658 22.3444 65.352 22.7044 64.956C23.0644 64.56 23.3524 64.11 23.5684 63.57C23.7844 63.03 23.8924 62.454 23.8924 61.842C23.8924 61.23 23.7844 60.672 23.5684 60.132C23.3524 59.592 23.0824 59.142 22.7224 58.746C22.3624 58.35 21.9304 58.044 21.4444 57.81C20.9404 57.594 20.4184 57.468 19.8604 57.468ZM29.3336 64.812C28.9016 64.812 28.5236 64.74 28.1816 64.578C27.8396 64.434 27.5516 64.218 27.3176 63.948C27.0656 63.678 26.8856 63.354 26.7596 62.994C26.6156 62.634 26.5616 62.256 26.5616 61.842C26.5616 61.446 26.6156 61.05 26.7596 60.69C26.8856 60.33 27.0656 60.024 27.3176 59.754C27.5516 59.484 27.8396 59.268 28.1816 59.106C28.5236 58.962 28.9016 58.872 29.3336 58.872C29.7476 58.872 30.1256 58.962 30.4676 59.106C30.8096 59.268 31.0976 59.484 31.3496 59.754C31.5836 60.024 31.7636 60.33 31.9076 60.69C32.0336 61.05 32.1056 61.446 32.1056 61.842C32.1056 62.256 32.0336 62.634 31.9076 62.994C31.7636 63.354 31.5836 63.678 31.3496 63.948C31.0976 64.218 30.8096 64.434 30.4676 64.578C30.1256 64.74 29.7476 64.812 29.3336 64.812ZM29.3336 57.468C28.7216 57.468 28.1456 57.594 27.6236 57.81C27.1016 58.044 26.6516 58.35 26.2736 58.746C25.8776 59.142 25.5896 59.592 25.3736 60.132C25.1576 60.672 25.0496 61.23 25.0496 61.842C25.0496 62.454 25.1576 63.03 25.3736 63.57C25.5896 64.11 25.8776 64.56 26.2736 64.956C26.6516 65.352 27.1016 65.658 27.6236 65.874C28.1456 66.108 28.7216 66.216 29.3336 66.216C29.9456 66.216 30.5036 66.108 31.0256 65.874C31.5476 65.658 31.9976 65.352 32.3936 64.956C32.7716 64.56 33.0776 64.11 33.2936 63.57C33.5096 63.03 33.6176 62.454 33.6176 61.842C33.6176 61.23 33.5096 60.672 33.2936 60.132C33.0776 59.592 32.7716 59.142 32.3936 58.746C31.9976 58.35 31.5476 58.044 31.0256 57.81C30.5036 57.594 29.9456 57.468 29.3336 57.468ZM39.0543 64.812C38.6223 64.812 38.2443 64.74 37.9023 64.578C37.5603 64.434 37.2723 64.218 37.0383 63.948C36.7863 63.678 36.6063 63.354 36.4803 62.994C36.3363 62.634 36.2823 62.256 36.2823 61.842C36.2823 61.446 36.3363 61.05 36.4803 60.69C36.6063 60.33 36.7863 60.024 37.0383 59.754C37.2723 59.484 37.5603 59.268 37.9023 59.106C38.2443 58.962 38.6223 58.872 39.0543 58.872C39.4683 58.872 39.8463 58.962 40.1883 59.106C40.5303 59.268 40.8183 59.484 41.0703 59.754C41.3043 60.024 41.4843 60.33 41.6283 60.69C41.7543 61.05 41.8263 61.446 41.8263 61.842C41.8263 62.256 41.7543 62.634 41.6283 62.994C41.4843 63.354 41.3043 63.678 41.0703 63.948C40.8183 64.218 40.5303 64.434 40.1883 64.578C39.8463 64.74 39.4683 64.812 39.0543 64.812ZM39.0543 57.468C38.4423 57.468 37.8663 57.594 37.3443 57.81C36.8223 58.044 36.3723 58.35 35.9943 58.746C35.5983 59.142 35.3103 59.592 35.0943 60.132C34.8783 60.672 34.7703 61.23 34.7703 61.842C34.7703 62.454 34.8783 63.03 35.0943 63.57C35.3103 64.11 35.5983 64.56 35.9943 64.956C36.3723 65.352 36.8223 65.658 37.3443 65.874C37.8663 66.108 38.4423 66.216 39.0543 66.216C39.6663 66.216 40.2243 66.108 40.7463 65.874C41.2683 65.658 41.7183 65.352 42.1143 64.956C42.4923 64.56 42.7983 64.11 43.0143 63.57C43.2303 63.03 43.3383 62.454 43.3383 61.842C43.3383 61.23 43.2303 60.672 43.0143 60.132C42.7983 59.592 42.4923 59.142 42.1143 58.746C41.7183 58.35 41.2683 58.044 40.7463 57.81C40.2243 57.594 39.6663 57.468 39.0543 57.468ZM46.903 61.968L50.665 66H52.771L48.559 61.608L52.447 57.684H50.467L46.903 61.374V52.392H45.391V66H46.903V61.968Z" fill="black"/>
</svg>  
